inDegrees=no
num_controls=7
num_derivatives=13
num_iterations=118
num_multipliers=7
num_parameters=0
num_slacks=7
num_states=26
objective=0.469713
objective_accelerations=0.063263
objective_balance=0.001930
objective_effort=0.020207
objective_height=0.374737
objective_ligament=0.009575
solver_duration=1752.384623
status=Solve_Succeeded
success=true
DataType=double
version=3
OpenSimVersion=4.5
endheader
time	/jointset/ground_pelvis/pelvis_tilt/value	/jointset/ground_pelvis/pelvis_tx/value	/jointset/ground_pelvis/pelvis_ty/value	/jointset/hip_l/hip_flexion_l/value	/jointset/hip_l/hip_adduction_l/value	/jointset/hip_l/hip_rotation_l/value	/jointset/back/lumbar_extension/value	/jointset/patellofemoral_l/patellar_flexion_l/value	/jointset/knee_l/knee_flexion_l/value	/jointset/knee_l/knee_adduction_l/value	/jointset/knee_l/knee_rotation_l/value	/jointset/ankle_l/ankle_angle_l/value	/jointset/subtalar_l/subtalar_angle_l/value	/jointset/ground_pelvis/pelvis_tilt/speed	/jointset/ground_pelvis/pelvis_tx/speed	/jointset/ground_pelvis/pelvis_ty/speed	/jointset/hip_l/hip_flexion_l/speed	/jointset/hip_l/hip_adduction_l/speed	/jointset/hip_l/hip_rotation_l/speed	/jointset/back/lumbar_extension/speed	/jointset/patellofemoral_l/patellar_flexion_l/speed	/jointset/knee_l/knee_flexion_l/speed	/jointset/knee_l/knee_adduction_l/speed	/jointset/knee_l/knee_rotation_l/speed	/jointset/ankle_l/ankle_angle_l/speed	/jointset/subtalar_l/subtalar_angle_l/speed	/forceset/tau_hip_flexion_l	/forceset/tau_hip_adduction_l	/forceset/tau_hip_rotation_l	/forceset/tau_knee_flexion_l	/forceset/tau_ankle_angle_l	/forceset/tau_subtalar_angle_l	/forceset/tau_lumbar_extension	lambda_cid13_p0	lambda_cid13_p1	lambda_cid13_p2	lambda_cid13_p3	lambda_cid13_p4	lambda_cid13_p5	lambda_cid14_p0	/jointset/ground_pelvis/pelvis_tilt/accel	/jointset/ground_pelvis/pelvis_tx/accel	/jointset/ground_pelvis/pelvis_ty/accel	/jointset/hip_l/hip_flexion_l/accel	/jointset/hip_l/hip_adduction_l/accel	/jointset/hip_l/hip_rotation_l/accel	/jointset/back/lumbar_extension/accel	/jointset/patellofemoral_l/patellar_flexion_l/accel	/jointset/knee_l/knee_flexion_l/accel	/jointset/knee_l/knee_adduction_l/accel	/jointset/knee_l/knee_rotation_l/accel	/jointset/ankle_l/ankle_angle_l/accel	/jointset/subtalar_l/subtalar_angle_l/accel	gamma_cid13_p0	gamma_cid13_p1	gamma_cid13_p2	gamma_cid13_p3	gamma_cid13_p4	gamma_cid13_p5	gamma_cid14_p0
1.5	-0.5579094873577903	-0.03963031668102354	0.7910866311570713	1.202995639003461	-0.3478450189650878	-0.1175469541428589	-0.3420471537457501	0.5659109438864699	0.5659109438852232	-0.0597535076959237	-0.1744628206585655	0.01601937030381288	0.07904510765432209	1.08062375547746	0.4967981710708011	0.4708525450719359	-2.815272378459416	-0.001265534691973567	-0.5179036251496607	0.6020461554327228	-1.538699734260908	-1.538699734260731	-0.2102701749840774	0.003577323145623916	0.08683306620877332	0.03062686204701804	-0.204022694095049	0.02067218989619513	0.007612815550545033	-0.06217585224937658	0.03105485465647735	0.006604157871151417	0.1661322968030007	-14.04467316919931	-3.020279923445446	3.183140186503659	-6.401207223281295	-430.1863924785088	-57.58663491601758	-20.2062078950623	0.8023648284966565	0.8422856326020359	-0.6066353174656883	-1.701584103471771	0.2627595756001361	-0.2465979860350282	1.830836764338865	-0.5592058453395801	-0.5592058453395895	-0.3016579358019428	0.1923848663894514	0.2990303488852905	0.3634275145189371	-2.097954133094891e-09	1.41637036055014e-06	7.870184913756362e-09	2.834467203715474e-07	2.771325860688884e-07	-1.400492732204992e-07	2.372774332015644e-07
1.51	-0.5470637665504495	-0.03462078556003755	0.7957638917886515	1.17476001294416	-0.3478460440614922	-0.1227390530200904	-0.3359372316767112	0.550497645347319	0.5504976453473636	-0.06187359258764608	-0.1744195460409803	0.01690224597111203	0.07936789691285225	1.088344376281754	0.5050366294248509	0.4644976400580101	-2.831462622697607	0.001060920955113782	-0.5204768411045708	0.6198468064790641	-1.543762365134958	-1.543762365134677	-0.2137279742114435	0.005076267929866947	0.08973657591841887	0.03393045774399957	-0.197127110051018	0.02012436771688451	0.007935374955524432	-0.0606214389267371	0.02804584469843291	0.005580392785212073	0.1610191075082919	-14.87086729424144	-2.620743015520176	3.336177103108383	-5.668048598672517	-426.3654028250334	-57.19819331126823	-20.71265249778331	0.730540349047309	0.8039561679956011	-0.6651203575884103	-1.519171247834624	0.2175177903541712	-0.2565399779412214	1.740961490404903	-0.4502117635548668	-0.450211763539293	-0.3648226308243149	0.1282626491545938	0.2852213594310067	0.3136410686536654	5.466367089983195e-08	1.267477922252368e-06	-4.59840487682385e-07	2.408671893062761e-07	3.876402320448452e-07	-1.32214491558565e-07	2.830316857640278e-07
1.52	-0.5361461136065362	-0.02953100380927317	0.8003745629172457	1.146374199109707	-0.3478238187552078	-0.1279556553724166	-0.3296520466540847	0.5350396364883958	0.5350396364897492	-0.06402765181454581	-0.1743613593026157	0.01781399875099295	0.07972368522262538	1.095010182792111	0.5128482970264797	0.4575346444747782	-2.845309933489471	0.00338454584584861	-0.5228043201683706	0.6370987461503296	-1.547641798213697	-1.547641798213312	-0.2170650420236259	0.006559747302625149	0.09260848872513662	0.03722667229561688	-0.1902315260070007	0.01957654553756726	0.008257934360582517	-0.05906702560410337	0.02503683474038586	0.004556627699264315	0.1559059182135712	-15.70081011394742	-2.220959884884742	3.489643752760867	-4.924556263083309	-422.5999244948908	-56.86719857846002	-21.19727979547553	0.591401969709397	0.7569274821177991	-0.7282534313269182	-1.232997414206556	0.2621934243296239	-0.1974506078129675	1.721094489323691	-0.3225662862774571	-0.3225662862774636	-0.2775116527652168	0.1892917840924643	0.2927109682997213	0.361951285446081	8.467228851884223e-08	1.235588727940106e-06	-7.082243736925899e-07	2.213222920607198e-07	4.634616547947343e-07	-1.140043844150137e-07	3.124839635536185e-07
1.53	-0.5251670627625568	-0.02436528878728389	0.804912655252968	1.117861524371304	-0.3477783875452385	-0.1331942892320381	-0.3231973405667534	0.5195486633376564	0.519548663338938	-0.0662145496802951	-0.1742883543188212	0.01875428680440947	0.08011237323585255	1.100617056854509	0.5202172964711991	0.4499888941983297	-2.856820017508379	0.005707538515459277	-0.5248524903706859	0.6537343466524179	-1.550346358826884	-1.550346358826623	-0.2202887642050562	0.00806941740858242	0.09544939971710166	0.04051746883248836	-0.183279942259375	0.01881320890914231	0.008554744708832916	-0.05778117864097648	0.0224635216809961	0.003373947392980158	0.1507280409926727	-16.40885024173661	-1.762222362611038	3.620824333234874	-4.270655569238312	-419.0026995875497	-56.48212224373169	-21.65755714929156	0.5179237189888095	0.7153203187178327	-0.7818704384598525	-1.049222439073358	0.2180668395959281	-0.1977404672510833	1.618574131147252	-0.2134962046311533	-0.2134962046496044	-0.340714188700908	0.135830824036379	0.2798615755670309	0.3134941453406487	8.625583576056645e-08	1.328015480362446e-06	-7.235735489552394e-07	2.262516932486104e-07	5.024289653669267e-07	-8.477049394724449e-08	3.246153931470322e-07
1.54	-0.5141374244590571	-0.01912819694223357	0.8093724631633944	1.089245907084042	-0.3477095834783097	-0.1384512528418488	-0.3165795222143026	0.5040368255296206	0.5040368255308414	-0.06843286710540816	-0.1741994473939374	0.01972300004992988	0.08053413927595497	1.105127674696265	0.5271236616386881	0.4418777594156242	-2.865898443260906	0.008059117237840587	-0.5264702702054135	0.6697211991743386	-1.551814729671742	-1.551814729671603	-0.2233489539012479	0.009740135522101281	0.09829352714595119	0.04384227767067783	-0.1763283585117724	0.01804987228069713	0.008851555057154235	-0.05649533167786149	0.01989020862159796	0.002191267086671891	0.1455501637717588	-17.11995424238352	-1.303016923988481	3.752009336434816	-3.608397295276398	-415.4485466389066	-56.15429325323731	-22.0937486597134	0.3721507255811048	0.6644006266717153	-0.8413303325783258	-0.7466657609307268	0.2679106348837486	-0.1113725342954209	1.591344893290163	-0.07532833261141204	-0.0753283326114112	-0.2448051557175089	0.2215013856047743	0.2933542556766039	0.3687537457096747	8.558138592025561e-08	1.404483361827002e-06	-7.26816893008289e-07	2.28772456740913e-07	5.373276387798449e-07	-5.182166138954217e-08	3.317201960202601e-07
